<?xml version="1.0" encoding="utf-8"?>
<!-- Generator: Adobe Illustrator 24.0.1, SVG Export Plug-In . SVG Version: 6.00 Build 0)  -->
<svg version="1.1" id="Layer_1" xmlns="http://www.w3.org/2000/svg" xmlns:xlink="http://www.w3.org/1999/xlink" x="0px" y="0px"
	 viewBox="0 0 772.9 335.3" style="enable-background:new 0 0 772.9 335.3;" xml:space="preserve">
<style type="text/css">
	.st0{fill:#35A8E0;}
	.st1{fill:#163651;}
	.st2{fill:#FFFFFF;}
</style>
<g>
	<g>
		<polygon class="st0" points="108.8,197.3 126.4,312.9 673.1,297.9 658.2,197.3 		"/>
	</g>
	<g>
		<polygon class="st0" points="107.5,15.2 21.9,231.4 719.5,233.5 752.1,49.9 		"/>
	</g>
	<g>
		<path class="st1" d="M97.9,187.1l11.7-15.5l2-0.2c5.8,4.6,17.5,9.9,28.2,9.9c11.9,0,22-5,22-18.5c0-11.5-11.3-15.9-23.4-20.5
			c-16.7-6.4-35.9-13.9-35.9-37.9c0-24.8,20.1-39.7,43.7-39.7c23.8,0,38.7,11.7,38.7,11.7l0.4,2l-10.5,16.1l-2,0.4
			c0,0-10.3-8.3-25.8-8.3c-13.3,0-19.5,7.1-19.5,17.3c0,10.1,10.7,14.5,22,18.7c17.1,6.2,37.3,14.5,37.3,40.1
			c0,31-25.8,40.5-47.1,40.5c-22.8,0-41.5-14.1-41.5-14.1L97.9,187.1z"/>
		<path class="st1" d="M214,69.2l1.4-1.4l21.8-2.6l1.4,1.4v53.2h62.7V69.2l1.4-1.4l21.8-2.6l1.4,1.4v132.8l-1.4,1.4h-21.8l-1.4-1.4
			v-57.8h-62.7v57.8l-1.4,1.4h-21.8l-1.4-1.4V69.2L214,69.2z"/>
		<path class="st1" d="M391.3,69.2l1.4-1.4l22-2.6l1.4,1.4l47.7,132.8l-1.4,1.4h-22.8l-1.4-1.4L428,169h-47.7l-10.1,30.4l-1.4,1.4
			H346l-1.4-1.4L391.3,69.2z M421.1,148.4l-13.3-39.9l-3.6-13.1l-3.6,13.1l-13.3,39.9H421.1z"/>
		<path class="st1" d="M482,68.2l1.4-1.4h38.9c24.6,0,49.6,10.3,49.6,40.7c0,34.5-33.2,38.7-33.2,38.7l5.6,6.8l14.1,20.3
			c1.6,2.4,5.8,6.8,12.5,6.8c4,0,6.4-0.8,6.4-0.8l1.4,1.4l-3.2,19.1l-1.4,1.4c-1.2,0.2-5.2,0.4-6.9,0.4c-18.3,0-28-13.7-30-16.9
			l-23-35.5l-2-1.2h-5.6v51.6l-1.4,1.4h-21.8l-1.4-1.4L482,68.2L482,68.2z M522.7,127.1c13.9,0,24.6-5.4,24.6-19.7
			s-10.7-19.7-24.6-19.7h-16.1V127L522.7,127.1L522.7,127.1z"/>
		<path class="st1" d="M603.1,68.2l1.4-1.4h41.3c32,0,49.2,16.5,49.2,43.7c0,21.6-14.3,42.7-43.7,42.7c-9.1,0-20.6-3.6-24.8-12.9
			l1.2,12.3v47.1l-1.4,1.2h-21.8l-1.4-1.2V68.2z M642.2,133.5c13.7,0,28.2-6.4,28.2-23c0-13.9-8.7-22.6-24.8-22.6h-17.9V131
			C631.9,132.5,637.1,133.5,642.2,133.5z"/>
	</g>
	<g>
		<path class="st2" d="M248.9,231.7l0.3-0.4l4.4-0.6l0.4,0.2l13.2,24l12.9-23.4l0.3-0.4l4.8-0.5l0.3,0.2v39.5l-0.3,0.3h-4.4
			l-0.2-0.3v-31l-1.5,3.2l-9.5,17l-0.4,0.3H265l-0.4-0.3l-9.5-17l-1.4-3.2v31l-0.3,0.3H249l-0.3-0.3v-38.6L248.9,231.7L248.9,231.7z
			"/>
		<path class="st2" d="M305.4,231.7l0.4-0.3l4.9-0.6l0.4,0.2l13.9,39.5l-0.2,0.3h-4.7l-0.4-0.3l-3.2-9.5h-16.4l-3.2,9.5l-0.3,0.3
			h-4.8l-0.2-0.3L305.4,231.7z M315.1,256.5l-6.1-18.1l-0.6-2.5l-0.6,2.5l-6.1,18.1H315.1z"/>
		<path class="st2" d="M331.2,231.4l0.3-0.3H342c3.1,0,6.2,0.5,8.6,2.1c2.9,1.8,4.9,4.9,4.9,9.6c0,10.9-11.5,11.5-11.5,11.5l1.3,1.3
			l6.9,8.3c1,1.2,2.5,2.5,4.7,2.5c0.2,0,0.4-0.1,0.6-0.1l0.2,0.3l-0.6,4l-0.4,0.3c-0.4,0.1-0.8,0.1-1.2,0.1c-4.1,0-6.8-3.5-7.8-4.9
			l-9.2-11.4l-0.4-0.2h-2v16l-0.3,0.3h-4.4l-0.3-0.3L331.2,231.4L331.2,231.4z M341.9,249.9c4.3,0,8.6-1.6,8.6-7.1
			c0-5.3-4.4-7.2-8.6-7.2h-5.8v14.3H341.9L341.9,249.9z"/>
		<path class="st2" d="M365.4,231.7l0.3-0.4l4.4-0.6l0.3,0.2v16.6h2.8l0.5-0.2l12.2-15.6l0.5-0.3l6.2-0.7l0.2,0.3l-14,16.9l-1.7,1.7
			l1.7,1.9l9.3,12.3c0.5,0.7,2.1,2.5,4.6,2.5c0.2,0,0.5,0,0.7-0.1l0.2,0.3l-0.6,4l-0.4,0.3c-0.4,0.1-0.7,0.1-1.1,0.1
			c-4,0-6.5-2.9-7.9-4.8l-10.3-13.9l-0.5-0.2h-2.5v18.5l-0.3,0.3h-4.4l-0.3-0.3L365.4,231.7L365.4,231.7z"/>
		<path class="st2" d="M400.4,231.4l0.3-0.3H421l0.3,0.3v4.1l-0.3,0.3h-15.8v11.8H419l0.2,0.3l-1.1,4.1l-0.4,0.3h-12.5v13.8H421
			l0.2,0.3l-0.6,4.1l-0.4,0.3h-19.8l-0.3-0.3v-39.1H400.4z"/>
		<path class="st2" d="M437.2,235.8h-10.9l-0.3-0.3v-4.1l0.3-0.3h27.6l0.2,0.3l-1.1,4.1l-0.4,0.3h-10.5v34.7l-0.3,0.3h-4.4l-0.3-0.3
			L437.2,235.8L437.2,235.8z"/>
		<path class="st2" d="M459.8,231.7l0.3-0.4l4.4-0.6l0.3,0.2v39.5l-0.3,0.3h-4.4l-0.3-0.3V231.7z"/>
		<path class="st2" d="M475.7,231.7l0.3-0.4l4.4-0.6l0.4,0.2l19,28.7l1.5,2.8v-30.8l0.3-0.4l4.4-0.6l0.3,0.2v39.5l-0.3,0.3h-4.2
			l-0.5-0.3l-19.2-28.9l-1.5-2.8v31.7l-0.3,0.3H476l-0.3-0.3V231.7z"/>
		<path class="st2" d="M516,245.1c0-9.5,6.2-14.6,15.4-14.6c6.5,0,11.6,2.9,13.8,8.1L545,239l-3.9,1.6l-0.4-0.1
			c-1.6-3.2-5-5.3-9.2-5.3c-6,0-10.3,3.5-10.3,10.3v11.1c0,7,4.4,10.2,10.3,10.2c6.1,0,10.5-3.2,10.5-10.2v-1.4h-6.8l-0.4-0.3
			l-0.6-4.1l0.2-0.3h12.1l0.3,0.3v6.3c0,9.5-5.9,14.4-15.4,14.4c-9.2,0-15.4-4.9-15.4-14.4L516,245.1L516,245.1z"/>
	</g>
</g>
</svg>
